<svg xmlns="http://www.w3.org/2000/svg" viewBox="0 0 1066.38 1274.87"><defs><style>.cls-1,.cls-2{fill:#fff;}.cls-1{stroke:#fff;stroke-miterlimit:10;stroke-width:5px;}.cls-2{font-size:492.44px;font-family:Futura-Medium, Futura;letter-spacing:-0.07em;}.cls-3{letter-spacing:-0.24em;}</style></defs><title>al-logo</title><g id="Layer_2" data-name="Layer 2"><g id="Layer_2-2" data-name="Layer 2"><path class="cls-1" d="M420.29,1254.69c163.4-23,308.06-108.26,407.34-240.07S968.91,720.24,945.9,556.84,837.64,248.78,705.84,149.51,411.46,8.23,248.06,31.23a616.93,616.93,0,0,0-246.6,91.3,635.6,635.6,0,0,1,283-113.71C452.41-14.82,619.49,28.35,755,130.37S978,381.07,1001.66,549s-19.53,335-121.55,470.46-250.69,223.08-418.62,246.72A635.72,635.72,0,0,1,158.08,1235,617.17,617.17,0,0,0,420.29,1254.69Z"/><text class="cls-2" transform="translate(59.42 774.2)">AL<tspan class="cls-3" x="510.21" y="0"> </tspan></text></g></g></svg>